<svg width="32" height="32" viewBox="0 0 32 32" fill="none" xmlns="http://www.w3.org/2000/svg">
<path d="M26 4.25H22.75V3C22.75 2.80109 22.671 2.61032 22.5303 2.46967C22.3897 2.32902 22.1989 2.25 22 2.25C21.8011 2.25 21.6103 2.32902 21.4697 2.46967C21.329 2.61032 21.25 2.80109 21.25 3V4.25H10.75V3C10.75 2.80109 10.671 2.61032 10.5303 2.46967C10.3897 2.32902 10.1989 2.25 10 2.25C9.80109 2.25 9.61032 2.32902 9.46967 2.46967C9.32902 2.61032 9.25 2.80109 9.25 3V4.25H6C5.53587 4.25 5.09075 4.43437 4.76256 4.76256C4.43437 5.09075 4.25 5.53587 4.25 6V26C4.25 26.4641 4.43437 26.9092 4.76256 27.2374C5.09075 27.5656 5.53587 27.75 6 27.75H26C26.4641 27.75 26.9092 27.5656 27.2374 27.2374C27.5656 26.9092 27.75 26.4641 27.75 26V6C27.75 5.53587 27.5656 5.09075 27.2374 4.76256C26.9092 4.43437 26.4641 4.25 26 4.25ZM6 5.75H9.25V7C9.25 7.19891 9.32902 7.38968 9.46967 7.53033C9.61032 7.67098 9.80109 7.75 10 7.75C10.1989 7.75 10.3897 7.67098 10.5303 7.53033C10.671 7.38968 10.75 7.19891 10.75 7V5.75H21.25V7C21.25 7.19891 21.329 7.38968 21.4697 7.53033C21.6103 7.67098 21.8011 7.75 22 7.75C22.1989 7.75 22.3897 7.67098 22.5303 7.53033C22.671 7.38968 22.75 7.19891 22.75 7V5.75H26C26.0663 5.75 26.1299 5.77634 26.1768 5.82322C26.2237 5.87011 26.25 5.9337 26.25 6V10.25H5.75V6C5.75 5.9337 5.77634 5.87011 5.82322 5.82322C5.87011 5.77634 5.9337 5.75 6 5.75ZM26 26.25H6C5.9337 26.25 5.87011 26.2237 5.82322 26.1768C5.77634 26.1299 5.75 26.0663 5.75 26V11.75H26.25V26C26.25 26.0663 26.2237 26.1299 26.1768 26.1768C26.1299 26.2237 26.0663 26.25 26 26.25ZM17.25 16.5C17.25 16.7472 17.1767 16.9889 17.0393 17.1945C16.902 17.4 16.7068 17.5602 16.4784 17.6549C16.2499 17.7495 15.9986 17.7742 15.7561 17.726C15.5137 17.6777 15.2909 17.5587 15.1161 17.3839C14.9413 17.2091 14.8222 16.9863 14.774 16.7439C14.7258 16.5014 14.7505 16.2501 14.8452 16.0216C14.9398 15.7932 15.1 15.598 15.3055 15.4607C15.5111 15.3233 15.7528 15.25 16 15.25C16.3315 15.25 16.6495 15.3817 16.8839 15.6161C17.1183 15.8505 17.25 16.1685 17.25 16.5ZM22.75 16.5C22.75 16.7472 22.6767 16.9889 22.5393 17.1945C22.402 17.4 22.2068 17.5602 21.9784 17.6549C21.7499 17.7495 21.4986 17.7742 21.2561 17.726C21.0137 17.6777 20.7909 17.5587 20.6161 17.3839C20.4413 17.2091 20.3223 16.9863 20.274 16.7439C20.2258 16.5014 20.2505 16.2501 20.3451 16.0216C20.4398 15.7932 20.6 15.598 20.8055 15.4607C21.0111 15.3233 21.2528 15.25 21.5 15.25C21.8315 15.25 22.1495 15.3817 22.3839 15.6161C22.6183 15.8505 22.75 16.1685 22.75 16.5ZM11.75 21.5C11.75 21.7472 11.6767 21.9889 11.5393 22.1945C11.402 22.4 11.2068 22.5602 10.9784 22.6549C10.7499 22.7495 10.4986 22.7742 10.2561 22.726C10.0137 22.6777 9.79093 22.5587 9.61612 22.3839C9.4413 22.2091 9.32225 21.9863 9.27402 21.7439C9.22579 21.5014 9.25054 21.2501 9.34515 21.0216C9.43976 20.7932 9.59998 20.598 9.80554 20.4607C10.0111 20.3233 10.2528 20.25 10.5 20.25C10.8315 20.25 11.1495 20.3817 11.3839 20.6161C11.6183 20.8505 11.75 21.1685 11.75 21.5ZM17.25 21.5C17.25 21.7472 17.1767 21.9889 17.0393 22.1945C16.902 22.4 16.7068 22.5602 16.4784 22.6549C16.2499 22.7495 15.9986 22.7742 15.7561 22.726C15.5137 22.6777 15.2909 22.5587 15.1161 22.3839C14.9413 22.2091 14.8222 21.9863 14.774 21.7439C14.7258 21.5014 14.7505 21.2501 14.8452 21.0216C14.9398 20.7932 15.1 20.598 15.3055 20.4607C15.5111 20.3233 15.7528 20.25 16 20.25C16.3315 20.25 16.6495 20.3817 16.8839 20.6161C17.1183 20.8505 17.25 21.1685 17.25 21.5ZM22.75 21.5C22.75 21.7472 22.6767 21.9889 22.5393 22.1945C22.402 22.4 22.2068 22.5602 21.9784 22.6549C21.7499 22.7495 21.4986 22.7742 21.2561 22.726C21.0137 22.6777 20.7909 22.5587 20.6161 22.3839C20.4413 22.2091 20.3223 21.9863 20.274 21.7439C20.2258 21.5014 20.2505 21.2501 20.3451 21.0216C20.4398 20.7932 20.6 20.598 20.8055 20.4607C21.0111 20.3233 21.2528 20.25 21.5 20.25C21.8315 20.25 22.1495 20.3817 22.3839 20.6161C22.6183 20.8505 22.75 21.1685 22.75 21.5Z" fill="currentColor"/>
</svg>

