<svg width="32" height="32" viewBox="0 0 32 32" fill="none" xmlns="http://www.w3.org/2000/svg">
<path d="M19.2502 26C19.2502 26.1989 19.1712 26.3897 19.0305 26.5303C18.8899 26.671 18.6991 26.75 18.5002 26.75H15.0002C14.8013 26.75 14.6105 26.671 14.4699 26.5303C14.3292 26.3897 14.2502 26.1989 14.2502 26V19C14.2502 18.8011 14.3292 18.6103 14.4699 18.4697C14.6105 18.329 14.8013 18.25 15.0002 18.25C15.1991 18.25 15.3899 18.329 15.5305 18.4697C15.6712 18.6103 15.7502 18.8011 15.7502 19V25.25H18.5002C18.6991 25.25 18.8899 25.329 19.0305 25.4697C19.1712 25.6103 19.2502 25.8011 19.2502 26ZM11.4352 18.3888C11.2735 18.2735 11.0727 18.227 10.8768 18.2596C10.6809 18.2921 10.5059 18.4011 10.3902 18.5625L8.50018 21.2087L6.61018 18.5625C6.55273 18.4824 6.48006 18.4144 6.39632 18.3624C6.31259 18.3103 6.21943 18.2753 6.12216 18.2593C6.02489 18.2433 5.92542 18.2466 5.82942 18.269C5.73343 18.2914 5.64279 18.3325 5.56268 18.39C5.48258 18.4475 5.41457 18.5201 5.36255 18.6039C5.31053 18.6876 5.27551 18.7808 5.25949 18.878C5.24347 18.9753 5.24677 19.0748 5.26919 19.1708C5.29162 19.2668 5.33273 19.3574 5.39018 19.4375L7.57893 22.5L5.39018 25.5625C5.33273 25.6426 5.29162 25.7332 5.26919 25.8292C5.24677 25.9252 5.24347 26.0247 5.25949 26.122C5.27551 26.2192 5.31053 26.3124 5.36255 26.3961C5.41457 26.4799 5.48258 26.5525 5.56268 26.61C5.64279 26.6675 5.73343 26.7086 5.82942 26.731C5.92542 26.7534 6.02489 26.7567 6.12216 26.7407C6.21943 26.7247 6.31259 26.6897 6.39632 26.6376C6.48006 26.5856 6.55273 26.5176 6.61018 26.4375L8.50018 23.7887L10.3902 26.4338C10.4593 26.5313 10.5507 26.6108 10.6568 26.6658C10.7629 26.7208 10.8807 26.7497 11.0002 26.75C11.1563 26.7505 11.3086 26.7015 11.4352 26.61C11.5154 26.5528 11.5835 26.4804 11.6357 26.3968C11.6879 26.3133 11.7232 26.2203 11.7394 26.1231C11.7557 26.026 11.7526 25.9266 11.7304 25.8306C11.7083 25.7346 11.6674 25.6439 11.6102 25.5637L9.42143 22.5L11.6102 19.4363C11.6676 19.356 11.7086 19.2653 11.7309 19.1692C11.7532 19.0731 11.7563 18.9735 11.74 18.8762C11.7238 18.7789 11.6885 18.6857 11.6362 18.6021C11.5839 18.5185 11.5156 18.446 11.4352 18.3888ZM23.8752 21.6525C22.5189 21.2612 22.1989 21.0662 22.2502 20.6637C22.2574 20.5374 22.2936 20.4143 22.356 20.3042C22.4184 20.1941 22.5054 20.0998 22.6102 20.0287C23.3102 19.555 24.8164 19.8 25.2902 19.9237C25.4817 19.9723 25.6846 19.9434 25.8549 19.8432C26.0252 19.743 26.1491 19.5797 26.1997 19.3887C26.2502 19.1977 26.2234 18.9944 26.1249 18.8231C26.0265 18.6518 25.8644 18.5263 25.6739 18.4737C25.4239 18.4062 23.1614 17.8488 21.7727 18.7838C21.4909 18.9749 21.2544 19.2255 21.0799 19.5179C20.9054 19.8104 20.7971 20.1375 20.7627 20.4762C20.5377 22.25 22.2952 22.7575 23.4589 23.0938C24.9739 23.5312 25.3052 23.76 25.2339 24.3137C25.2275 24.4465 25.1903 24.5759 25.1252 24.6917C25.0601 24.8076 24.9689 24.9067 24.8589 24.9813C24.1577 25.4475 22.6739 25.1863 22.2102 25.0588C22.0244 25.0213 21.8313 25.0555 21.6698 25.1546C21.5082 25.2537 21.3902 25.4102 21.3394 25.5928C21.2885 25.7754 21.3087 25.9704 21.3958 26.1387C21.4829 26.307 21.6305 26.4361 21.8089 26.5C22.4078 26.6596 23.0242 26.7436 23.6439 26.75C24.3302 26.75 25.0864 26.6313 25.6889 26.2325C25.9787 26.0392 26.2221 25.7842 26.4017 25.4857C26.5812 25.1873 26.6926 24.8528 26.7277 24.5063C26.9789 22.5487 25.1139 22.01 23.8752 21.6525ZM5.25018 14V5C5.25018 4.53587 5.43456 4.09075 5.76275 3.76256C6.09093 3.43437 6.53605 3.25 7.00018 3.25H19.0002C19.199 3.25018 19.3897 3.32931 19.5302 3.47L26.5302 10.47C26.6709 10.6105 26.75 10.8012 26.7502 11V14C26.7502 14.1989 26.6712 14.3897 26.5305 14.5303C26.3899 14.671 26.1991 14.75 26.0002 14.75C25.8013 14.75 25.6105 14.671 25.4699 14.5303C25.3292 14.3897 25.2502 14.1989 25.2502 14V11.75H19.0002C18.8013 11.75 18.6105 11.671 18.4699 11.5303C18.3292 11.3897 18.2502 11.1989 18.2502 11V4.75H7.00018C6.93388 4.75 6.87029 4.77634 6.82341 4.82322C6.77652 4.87011 6.75018 4.9337 6.75018 5V14C6.75018 14.1989 6.67116 14.3897 6.53051 14.5303C6.38986 14.671 6.19909 14.75 6.00018 14.75C5.80127 14.75 5.6105 14.671 5.46985 14.5303C5.3292 14.3897 5.25018 14.1989 5.25018 14ZM19.7502 10.25H24.1877L19.7502 5.81V10.25Z" fill="currentColor"/>
</svg>

