<svg width="32" height="32" viewBox="0 0 32 32" fill="none" xmlns="http://www.w3.org/2000/svg">
<path d="M7.25017 9.5C7.25017 7.57718 8.01401 5.73311 9.37364 4.37348C10.7333 3.01384 12.5773 2.25 14.5002 2.25C16.423 2.25 18.2671 3.01384 19.6267 4.37348C20.9863 5.73311 21.7502 7.57718 21.7502 9.5C21.7502 9.69891 21.6712 9.88968 21.5305 10.0303C21.3898 10.171 21.1991 10.25 21.0002 10.25C20.8013 10.25 20.6105 10.171 20.4698 10.0303C20.3292 9.88968 20.2502 9.69891 20.2502 9.5C20.2502 7.97501 19.6444 6.51247 18.566 5.43414C17.4877 4.3558 16.0252 3.75 14.5002 3.75C12.9752 3.75 11.5126 4.3558 10.4343 5.43414C9.35597 6.51247 8.75017 7.97501 8.75017 9.5C8.75017 9.69891 8.67115 9.88968 8.5305 10.0303C8.38985 10.171 8.19908 10.25 8.00017 10.25C7.80126 10.25 7.61049 10.171 7.46984 10.0303C7.32919 9.88968 7.25017 9.69891 7.25017 9.5ZM24.5002 15.25C23.8496 15.2494 23.214 15.445 22.6764 15.8112C22.5652 15.2991 22.3318 14.8215 21.9961 14.419C21.6604 14.0166 21.2323 13.7013 20.7484 13.5001C20.2646 13.2989 19.7392 13.2176 19.2171 13.2633C18.695 13.309 18.1917 13.4803 17.7502 13.7625V9.5C17.7502 8.63805 17.4078 7.8114 16.7983 7.2019C16.1888 6.59241 15.3621 6.25 14.5002 6.25C13.6382 6.25 12.8116 6.59241 12.2021 7.2019C11.5926 7.8114 11.2502 8.63805 11.2502 9.5V20.375L10.3089 18.8625C9.87579 18.1166 9.16408 17.5733 8.33036 17.3521C7.49665 17.1309 6.60921 17.25 5.86329 17.6831C5.11737 18.1163 4.57406 18.828 4.35289 19.6617C4.13171 20.4954 4.25079 21.3828 4.68392 22.1287L8.34892 28.3787C8.45163 28.545 8.61521 28.6647 8.8048 28.7121C8.9944 28.7596 9.19504 28.7312 9.36401 28.633C9.53297 28.5347 9.65691 28.3744 9.70942 28.1861C9.76194 27.9979 9.73888 27.7965 9.64517 27.625L5.98392 21.375C5.75185 20.973 5.68898 20.4953 5.80912 20.047C5.92926 19.5987 6.22257 19.2164 6.62454 18.9844C7.02651 18.7523 7.5042 18.6894 7.95253 18.8096C8.40086 18.9297 8.7831 19.223 9.01517 19.625C9.01862 19.6325 9.02281 19.6396 9.02767 19.6462L11.3627 23.3962C11.4486 23.535 11.5775 23.6419 11.7297 23.7007C11.8819 23.7596 12.0492 23.7671 12.2061 23.7223C12.363 23.6775 12.5011 23.5827 12.5993 23.4524C12.6974 23.322 12.7504 23.1632 12.7502 23V9.5C12.7502 9.03587 12.9345 8.59075 13.2627 8.26256C13.5909 7.93437 14.036 7.75 14.5002 7.75C14.9643 7.75 15.4094 7.93437 15.7376 8.26256C16.0658 8.59075 16.2502 9.03587 16.2502 9.5V18C16.2502 18.1989 16.3292 18.3897 16.4698 18.5303C16.6105 18.671 16.8013 18.75 17.0002 18.75C17.1991 18.75 17.3898 18.671 17.5305 18.5303C17.6712 18.3897 17.7502 18.1989 17.7502 18V16.5C17.7502 16.0359 17.9345 15.5908 18.2627 15.2626C18.5909 14.9344 19.036 14.75 19.5002 14.75C19.9643 14.75 20.4094 14.9344 20.7376 15.2626C21.0658 15.5908 21.2502 16.0359 21.2502 16.5V19C21.2502 19.1989 21.3292 19.3897 21.4698 19.5303C21.6105 19.671 21.8013 19.75 22.0002 19.75C22.1991 19.75 22.3898 19.671 22.5305 19.5303C22.6712 19.3897 22.7502 19.1989 22.7502 19V18.5C22.7502 18.0359 22.9345 17.5908 23.2627 17.2626C23.5909 16.9344 24.036 16.75 24.5002 16.75C24.9643 16.75 25.4094 16.9344 25.7376 17.2626C26.0658 17.5908 26.2502 18.0359 26.2502 18.5V23C26.2502 25.7663 25.3377 27.6475 25.3289 27.665C25.242 27.8424 25.2285 28.0469 25.2915 28.2341C25.3544 28.4214 25.4887 28.5762 25.6652 28.665C25.7684 28.7198 25.8833 28.7489 26.0002 28.75C26.1398 28.7503 26.2767 28.7116 26.3955 28.6383C26.5143 28.5649 26.6103 28.4599 26.6727 28.335C26.7164 28.2475 27.7514 26.1413 27.7514 23V18.5C27.7514 18.0731 27.6673 17.6504 27.5039 17.256C27.3405 16.8616 27.101 16.5033 26.7991 16.2015C26.4971 15.8997 26.1387 15.6603 25.7443 15.497C25.3498 15.3338 24.9271 15.2498 24.5002 15.25Z" fill="currentColor"/>
</svg>

