<svg width="32" height="32" viewBox="0 0 32 32" fill="none" xmlns="http://www.w3.org/2000/svg">
<path d="M29.6535 4.34622C28.9492 3.64427 27.9954 3.25012 27.001 3.25012C26.0067 3.25012 25.0528 3.64427 24.3485 4.34622C23.6466 5.05052 23.2524 6.00435 23.2524 6.99872C23.2524 7.99309 23.6466 8.94692 24.3485 9.65122C24.4298 9.73122 24.5135 9.80622 24.5985 9.87747L21.081 16.41C20.5541 16.2528 19.9991 16.2129 19.4551 16.2932C18.9111 16.3736 18.3913 16.5721 17.9323 16.875L15.1248 14.0675C15.635 13.2924 15.8398 12.3557 15.6995 11.4384C15.5592 10.5211 15.0838 9.68843 14.3651 9.10135C13.6465 8.51426 12.7357 8.21446 11.8089 8.25992C10.8821 8.30539 10.005 8.69287 9.34729 9.34747C8.999 9.6957 8.72272 10.1091 8.53422 10.5641C8.34573 11.0191 8.24871 11.5068 8.24871 11.9993C8.24871 12.4919 8.34573 12.9795 8.53422 13.4346C8.72272 13.8896 8.999 14.303 9.34729 14.6512C9.42666 14.7313 9.51011 14.8072 9.59729 14.8787L6.07979 21.4112C5.43081 21.2154 4.74089 21.1992 4.08343 21.3643C3.42597 21.5294 2.82555 21.8696 2.34604 22.3487C1.82183 22.8733 1.46492 23.5415 1.32042 24.2688C1.17592 24.9962 1.25032 25.7501 1.53422 26.4351C1.81812 27.1202 2.29877 27.7058 2.9154 28.1177C3.53203 28.5296 4.25696 28.7495 4.99854 28.7495C5.74011 28.7495 6.46504 28.5296 7.08168 28.1177C7.69831 27.7058 8.17896 27.1202 8.46285 26.4351C8.74675 25.7501 8.82116 24.9962 8.67666 24.2688C8.53216 23.5415 8.17524 22.8733 7.65104 22.3487C7.56979 22.2687 7.48604 22.1937 7.40104 22.1225L10.9185 15.59C11.4454 15.7475 12.0005 15.7876 12.5446 15.7072C13.0886 15.6269 13.6084 15.4281 14.0673 15.125L16.8748 17.9325C16.4837 18.5244 16.2686 19.2152 16.2544 19.9245C16.2402 20.6338 16.4275 21.3327 16.7945 21.9398C17.1616 22.5469 17.6934 23.0375 18.3281 23.3545C18.9628 23.6715 19.6745 23.8019 20.3803 23.7306C21.0862 23.6593 21.7574 23.3893 22.316 22.9518C22.8745 22.5143 23.2975 21.9274 23.5358 21.2591C23.7741 20.5908 23.8179 19.8687 23.6622 19.1765C23.5064 18.4843 23.1576 17.8505 22.656 17.3487C22.5767 17.2686 22.4932 17.1927 22.406 17.1212L25.9235 10.5887C26.7235 10.8299 27.5811 10.7971 28.3603 10.4954C29.1395 10.1937 29.7955 9.64037 30.2244 8.9233C30.6533 8.20623 30.8304 7.36647 30.7277 6.53726C30.625 5.70806 30.2482 4.93692 29.6573 4.34622H29.6535ZM6.58979 26.5962C6.27509 26.9108 5.87418 27.125 5.43774 27.2118C5.0013 27.2985 4.54894 27.2539 4.13785 27.0836C3.72676 26.9133 3.3754 26.6249 3.1282 26.2549C2.881 25.8849 2.74906 25.4499 2.74906 25.005C2.74906 24.56 2.881 24.125 3.1282 23.755C3.3754 23.385 3.72676 23.0966 4.13785 22.9263C4.54894 22.756 5.0013 22.7114 5.43774 22.7982C5.87418 22.8849 6.27509 23.0991 6.58979 23.4137C7.01076 23.8355 7.24718 24.4072 7.24718 25.0031C7.24718 25.599 7.01076 26.1706 6.58979 26.5925V26.5962ZM10.4085 13.5962C10.0939 13.2815 9.87972 12.8806 9.79297 12.4442C9.70621 12.0077 9.75081 11.5554 9.92113 11.1443C10.0914 10.7332 10.3798 10.3818 10.7498 10.1346C11.1198 9.88743 11.5548 9.75549 11.9998 9.75549C12.4448 9.75549 12.8797 9.88743 13.2497 10.1346C13.6197 10.3818 13.9081 10.7332 14.0784 11.1443C14.2488 11.5554 14.2934 12.0077 14.2066 12.4442C14.1199 12.8806 13.9056 13.2815 13.591 13.5962C13.3818 13.8049 13.1334 13.9703 12.8602 14.083C12.587 14.1957 12.2943 14.2535 11.9988 14.253C11.7032 14.2525 11.4107 14.1938 11.1378 14.0803C10.865 13.9668 10.6171 13.8006 10.4085 13.5912V13.5962ZM21.591 21.5962C21.2763 21.9108 20.8754 22.125 20.439 22.2118C20.0026 22.2985 19.5502 22.2539 19.1391 22.0836C18.728 21.9133 18.3766 21.6249 18.1294 21.2549C17.8822 20.8849 17.7503 20.4499 17.7503 20.005C17.7503 19.56 17.8822 19.125 18.1294 18.755C18.3766 18.385 18.728 18.0966 19.1391 17.9263C19.5502 17.756 20.0026 17.7114 20.439 17.7982C20.8754 17.8849 21.2763 18.0991 21.591 18.4137C22.0116 18.8355 22.2478 19.4068 22.2478 20.0025C22.2478 20.5981 22.0116 21.1694 21.591 21.5912V21.5962ZM28.591 8.59622C28.2763 8.91082 27.8754 9.12504 27.439 9.21179C27.0026 9.29855 26.5502 9.25395 26.1391 9.08363C25.728 8.91331 25.3766 8.62492 25.1294 8.25493C24.8822 7.88493 24.7503 7.44995 24.7503 7.00497C24.7503 6.56 24.8822 6.12501 25.1294 5.75502C25.3766 5.38502 25.728 5.09663 26.1391 4.92631C26.5502 4.75599 27.0026 4.71139 27.439 4.79815C27.8754 4.88491 28.2763 5.09913 28.591 5.41372C29.0114 5.83528 29.2476 6.40625 29.2478 7.00159C29.248 7.59692 29.0123 8.16809 28.5923 8.58997L28.591 8.59622Z" fill="currentColor"/>
</svg>

