<svg width="32" height="32" viewBox="0 0 32 32" fill="none" xmlns="http://www.w3.org/2000/svg">
<path d="M27.7502 16C27.7502 16.1989 27.6711 16.3897 27.5305 16.5304C27.3898 16.671 27.1991 16.75 27.0002 16.75H16.0002C15.8012 16.75 15.6105 16.671 15.4698 16.5304C15.3292 16.3897 15.2502 16.1989 15.2502 16C15.2502 15.8011 15.3292 15.6104 15.4698 15.4697C15.6105 15.329 15.8012 15.25 16.0002 15.25H27.0002C27.1991 15.25 27.3898 15.329 27.5305 15.4697C27.6711 15.6104 27.7502 15.8011 27.7502 16ZM16.0002 8.75003H27.0002C27.1991 8.75003 27.3898 8.67101 27.5305 8.53036C27.6711 8.38971 27.7502 8.19894 27.7502 8.00003C27.7502 7.80112 27.6711 7.61035 27.5305 7.4697C27.3898 7.32905 27.1991 7.25003 27.0002 7.25003H16.0002C15.8012 7.25003 15.6105 7.32905 15.4698 7.4697C15.3292 7.61035 15.2502 7.80112 15.2502 8.00003C15.2502 8.19894 15.3292 8.38971 15.4698 8.53036C15.6105 8.67101 15.8012 8.75003 16.0002 8.75003ZM27.0002 23.25H16.0002C15.8012 23.25 15.6105 23.329 15.4698 23.4697C15.3292 23.6104 15.2502 23.8011 15.2502 24C15.2502 24.1989 15.3292 24.3897 15.4698 24.5304C15.6105 24.671 15.8012 24.75 16.0002 24.75H27.0002C27.1991 24.75 27.3898 24.671 27.5305 24.5304C27.6711 24.3897 27.7502 24.1989 27.7502 24C27.7502 23.8011 27.6711 23.6104 27.5305 23.4697C27.3898 23.329 27.1991 23.25 27.0002 23.25ZM10.4702 5.47003L7.00015 8.93878L5.53015 7.47003C5.38798 7.33755 5.19993 7.26543 5.00563 7.26885C4.81133 7.27228 4.62594 7.35099 4.48853 7.48841C4.35112 7.62582 4.27241 7.81121 4.26898 8.00551C4.26555 8.19981 4.33767 8.38785 4.47015 8.53003L6.47015 10.53C6.61078 10.6705 6.8014 10.7494 7.00015 10.7494C7.1989 10.7494 7.38953 10.6705 7.53015 10.53L11.5302 6.53003C11.6626 6.38785 11.7348 6.19981 11.7313 6.00551C11.7279 5.81121 11.6492 5.62582 11.5118 5.48841C11.3744 5.35099 11.189 5.27228 10.9947 5.26885C10.8004 5.26543 10.6123 5.33755 10.4702 5.47003ZM10.4702 13.47L7.00015 16.9388L5.53015 15.47C5.46149 15.3963 5.37869 15.3372 5.28669 15.2962C5.19469 15.2553 5.09538 15.2332 4.99468 15.2314C4.89397 15.2297 4.79394 15.2482 4.70056 15.2859C4.60717 15.3236 4.52233 15.3798 4.45112 15.451C4.3799 15.5222 4.32375 15.607 4.28603 15.7004C4.24831 15.7938 4.22979 15.8938 4.23156 15.9946C4.23334 16.0953 4.25538 16.1946 4.29637 16.2866C4.33736 16.3786 4.39647 16.4614 4.47015 16.53L6.47015 18.53C6.61078 18.6705 6.8014 18.7494 7.00015 18.7494C7.1989 18.7494 7.38953 18.6705 7.53015 18.53L11.5302 14.53C11.6626 14.3879 11.7348 14.1998 11.7313 14.0055C11.7279 13.8112 11.6492 13.6258 11.5118 13.4884C11.3744 13.351 11.189 13.2723 10.9947 13.2689C10.8004 13.2654 10.6123 13.3376 10.4702 13.47ZM10.4702 21.47L7.00015 24.9388L5.53015 23.47C5.38798 23.3375 5.19993 23.2654 5.00563 23.2689C4.81133 23.2723 4.62594 23.351 4.48853 23.4884C4.35112 23.6258 4.27241 23.8112 4.26898 24.0055C4.26555 24.1998 4.33767 24.3879 4.47015 24.53L6.47015 26.53C6.61078 26.6705 6.8014 26.7494 7.00015 26.7494C7.1989 26.7494 7.38953 26.6705 7.53015 26.53L11.5302 22.53C11.6626 22.3879 11.7348 22.1998 11.7313 22.0055C11.7279 21.8112 11.6492 21.6258 11.5118 21.4884C11.3744 21.351 11.189 21.2723 10.9947 21.2689C10.8004 21.2654 10.6123 21.3375 10.4702 21.47Z" fill="currentColor"/>
</svg>

