<svg width="32" height="32" viewBox="0 0 32 32" fill="none" xmlns="http://www.w3.org/2000/svg">
<path d="M28.5298 27.47L22.1073 21.0475C23.9388 18.9413 24.881 16.2062 24.7352 13.4189C24.5895 10.6316 23.3672 8.00977 21.326 6.10608C19.2849 4.20238 16.5843 3.16556 13.7936 3.21416C11.0029 3.26276 8.34012 4.393 6.3665 6.36662C4.39288 8.34024 3.26264 11.0031 3.21404 13.7938C3.16543 16.5844 4.20226 19.285 6.10596 21.3262C8.00965 23.3673 10.6315 24.5896 13.4188 24.7353C16.2061 24.8811 18.9411 23.9389 21.0473 22.1075L27.4698 28.53C27.612 28.6624 27.8001 28.7346 27.9944 28.7311C28.1887 28.7277 28.3741 28.649 28.5115 28.5116C28.6489 28.3742 28.7276 28.1888 28.731 27.9945C28.7344 27.8002 28.6623 27.6121 28.5298 27.47ZM4.74984 14C4.74984 12.1705 5.29235 10.3821 6.30875 8.86094C7.32515 7.33979 8.7698 6.15419 10.46 5.45408C12.1502 4.75397 14.0101 4.57079 15.8044 4.9277C17.5988 5.28462 19.2469 6.16559 20.5406 7.45923C21.8342 8.75286 22.7152 10.4011 23.0721 12.1954C23.429 13.9897 23.2458 15.8496 22.5457 17.5398C21.8456 19.23 20.66 20.6747 19.1389 21.6911C17.6177 22.7075 15.8293 23.25 13.9998 23.25C11.5475 23.247 9.19646 22.2715 7.46239 20.5374C5.72833 18.8033 4.75282 16.4523 4.74984 14Z" fill="#343330"/>
</svg>
