<svg width="32" height="32" viewBox="0 0 32 32" fill="none" xmlns="http://www.w3.org/2000/svg">
<path d="M3.2775 11.8013C3.25947 11.866 3.25022 11.9328 3.25 12V14C3.24968 14.7587 3.43109 15.5064 3.77905 16.1806C4.12701 16.8547 4.6314 17.4358 5.25 17.875V27C5.25 27.1989 5.32902 27.3897 5.46967 27.5303C5.61032 27.671 5.80109 27.75 6 27.75H26C26.1989 27.75 26.3897 27.671 26.5303 27.5303C26.671 27.3897 26.75 27.1989 26.75 27V17.875C27.3686 17.4358 27.873 16.8547 28.2209 16.1806C28.5689 15.5064 28.7503 14.7587 28.75 14V12C28.7501 11.9307 28.7404 11.8616 28.7213 11.795L26.9287 5.51875C26.8231 5.15455 26.6026 4.83426 26.3001 4.60562C25.9975 4.37697 25.6292 4.25224 25.25 4.25H6.75C6.3708 4.25224 6.00247 4.37697 5.69995 4.60562C5.39742 4.83426 5.17689 5.15455 5.07125 5.51875L3.2775 11.8013ZM6.51375 5.92625C6.52938 5.87563 6.56068 5.83128 6.60314 5.79961C6.6456 5.76793 6.69703 5.75056 6.75 5.75H25.25C25.3043 5.75008 25.357 5.7678 25.4003 5.8005C25.4436 5.8332 25.4751 5.87909 25.49 5.93125L27.0063 11.25H5L6.51375 5.92625ZM12.75 12.75H19.25V14C19.25 14.862 18.9076 15.6886 18.2981 16.2981C17.6886 16.9076 16.862 17.25 16 17.25C15.138 17.25 14.3114 16.9076 13.7019 16.2981C13.0924 15.6886 12.75 14.862 12.75 14V12.75ZM4.75 12.75H11.25V14C11.2506 14.5609 11.1061 15.1124 10.8305 15.6008C10.5548 16.0893 10.1575 16.4981 9.67704 16.7876C9.19661 17.077 8.64945 17.2371 8.08878 17.2525C7.52811 17.2678 6.97303 17.1377 6.4775 16.875C6.41594 16.8225 6.34629 16.7803 6.27125 16.75C5.80584 16.4576 5.42217 16.052 5.15613 15.5711C4.89008 15.0902 4.75035 14.5496 4.75 14V12.75ZM25.25 26.25H6.75V18.5825C7.7268 18.8483 8.76296 18.795 9.70736 18.4305C10.6518 18.066 11.455 17.4093 12 16.5562C12.4286 17.2286 13.0199 17.7821 13.719 18.1655C14.4181 18.5489 15.2026 18.7499 16 18.7499C16.7974 18.7499 17.5819 18.5489 18.281 18.1655C18.9801 17.7821 19.5714 17.2286 20 16.5562C20.545 17.4093 21.3482 18.066 22.2926 18.4305C23.237 18.795 24.2732 18.8483 25.25 18.5825V26.25ZM25.7288 16.75C25.6537 16.7803 25.5841 16.8225 25.5225 16.875C25.027 17.1377 24.4719 17.2678 23.9112 17.2525C23.3506 17.2371 22.8034 17.077 22.323 16.7876C21.8425 16.4981 21.4452 16.0893 21.1695 15.6008C20.8939 15.1124 20.7494 14.5609 20.75 14V12.75H27.25V14C27.2496 14.5496 27.1099 15.0902 26.8439 15.5711C26.5778 16.052 26.1942 16.4576 25.7288 16.75Z" fill="currentColor"/>
</svg>

