<svg width="32" height="32" viewBox="0 0 32 32" fill="none" xmlns="http://www.w3.org/2000/svg">
<path d="M21.2498 7.00002C21.2498 6.80111 21.3288 6.61034 21.4695 6.46969C21.6101 6.32904 21.8009 6.25002 21.9998 6.25002H24.2498V4.00002C24.2498 3.80111 24.3288 3.61034 24.4695 3.46969C24.6101 3.32904 24.8009 3.25002 24.9998 3.25002C25.1987 3.25002 25.3895 3.32904 25.5301 3.46969C25.6708 3.61034 25.7498 3.80111 25.7498 4.00002V6.25002H27.9998C28.1987 6.25002 28.3895 6.32904 28.5301 6.46969C28.6708 6.61034 28.7498 6.80111 28.7498 7.00002C28.7498 7.19893 28.6708 7.3897 28.5301 7.53035C28.3895 7.671 28.1987 7.75002 27.9998 7.75002H25.7498V10C25.7498 10.1989 25.6708 10.3897 25.5301 10.5303C25.3895 10.671 25.1987 10.75 24.9998 10.75C24.8009 10.75 24.6101 10.671 24.4695 10.5303C24.3288 10.3897 24.2498 10.1989 24.2498 10V7.75002H21.9998C21.8009 7.75002 21.6101 7.671 21.4695 7.53035C21.3288 7.3897 21.2498 7.19893 21.2498 7.00002ZM28.5735 13.875C29.0213 16.5379 28.6113 19.2742 27.4026 21.6888C26.194 24.1035 24.2492 26.0716 21.8491 27.3089C19.449 28.5462 16.7178 28.9888 14.0498 28.5728C11.3818 28.1567 8.91502 26.9035 7.00564 24.9942C5.09627 23.0848 3.84308 20.618 3.42702 17.95C3.01097 15.282 3.45356 12.5508 4.6909 10.1507C5.92824 7.7506 7.89632 5.80583 10.311 4.59716C12.7256 3.38849 15.4619 2.97846 18.1248 3.42627C18.2234 3.44103 18.318 3.4753 18.4032 3.52706C18.4884 3.57883 18.5624 3.64705 18.6209 3.72775C18.6794 3.80845 18.7213 3.90001 18.744 3.99707C18.7667 4.09412 18.7698 4.19474 18.7532 4.29302C18.7366 4.39131 18.7006 4.48529 18.6472 4.56949C18.5938 4.65368 18.5242 4.7264 18.4424 4.78338C18.3607 4.84036 18.2683 4.88047 18.1709 4.90135C18.0734 4.92224 17.9727 4.92348 17.8748 4.90502C17.2551 4.80204 16.628 4.7502 15.9998 4.75002C13.8039 4.74886 11.6557 5.39074 9.82038 6.59643C7.98507 7.80211 6.54298 9.51883 5.67211 11.5347C4.80125 13.5505 4.53973 15.7772 4.91983 17.94C5.29994 20.1028 6.30502 22.1069 7.81104 23.705C8.98945 21.8727 10.7509 20.4909 12.811 19.7825C11.7837 19.0983 11.0039 18.1017 10.5868 16.94C10.1697 15.7783 10.1375 14.5132 10.4949 13.3318C10.8523 12.1504 11.5804 11.1153 12.5716 10.3797C13.5627 9.64406 14.7642 9.24688 15.9985 9.24688C17.2328 9.24688 18.4344 9.64406 19.4255 10.3797C20.4166 11.1153 21.1447 12.1504 21.5022 13.3318C21.8596 14.5132 21.8274 15.7783 21.4103 16.94C20.9932 18.1017 20.2133 19.0983 19.186 19.7825C21.2462 20.4909 23.0076 21.8727 24.186 23.705C26.1549 21.6229 27.2512 18.8656 27.2498 16C27.2496 15.3718 27.1977 14.7447 27.0948 14.125C27.0763 14.0271 27.0776 13.9264 27.0985 13.8289C27.1193 13.7315 27.1594 13.6391 27.2164 13.5574C27.2734 13.4756 27.3461 13.406 27.4303 13.3526C27.5145 13.2992 27.6085 13.2632 27.7068 13.2466C27.8051 13.23 27.9057 13.2331 28.0027 13.2558C28.0998 13.2785 28.1914 13.3204 28.2721 13.3789C28.3528 13.4374 28.421 13.5114 28.4727 13.5966C28.5245 13.6818 28.5588 13.7764 28.5735 13.875ZM15.9998 19.25C16.8404 19.25 17.6621 19.0008 18.361 18.5338C19.0599 18.0668 19.6046 17.403 19.9263 16.6264C20.2479 15.8498 20.3321 14.9953 20.1681 14.1709C20.0041 13.3465 19.5994 12.5892 19.005 11.9948C18.4106 11.4004 17.6533 10.9957 16.8289 10.8317C16.0045 10.6677 15.15 10.7519 14.3734 11.0735C13.5968 11.3952 12.933 11.9399 12.466 12.6388C11.999 13.3378 11.7498 14.1594 11.7498 15C11.7498 16.1272 12.1976 17.2082 12.9946 18.0052C13.7916 18.8023 14.8726 19.25 15.9998 19.25ZM15.9998 27.25C18.5737 27.254 21.0705 26.3712 23.0698 24.75C22.3363 23.5303 21.2998 22.5212 20.0609 21.8206C18.8221 21.12 17.423 20.7518 15.9998 20.7518C14.5766 20.7518 13.1775 21.12 11.9387 21.8206C10.6998 22.5212 9.66328 23.5303 8.92979 24.75C10.9291 26.3712 13.4258 27.254 15.9998 27.25Z" fill="#343330"/>
</svg>
