<svg width="32" height="32" viewBox="0 0 32 32" fill="none" xmlns="http://www.w3.org/2000/svg">
<path d="M31.7502 17C31.7502 17.1989 31.6712 17.3897 31.5305 17.5303C31.3899 17.671 31.1991 17.75 31.0002 17.75H25.0002C24.8013 17.75 24.6105 17.671 24.4699 17.5303C24.3292 17.3897 24.2502 17.1989 24.2502 17C24.2502 16.8011 24.3292 16.6103 24.4699 16.4696C24.6105 16.329 24.8013 16.25 25.0002 16.25H31.0002C31.1991 16.25 31.3899 16.329 31.5305 16.4696C31.6712 16.6103 31.7502 16.8011 31.7502 17ZM24.5739 24.5175C24.6408 24.5923 24.692 24.6799 24.7244 24.7749C24.7569 24.8699 24.7699 24.9704 24.7628 25.0705C24.7556 25.1707 24.7284 25.2683 24.6829 25.3578C24.6373 25.4472 24.5742 25.5266 24.4974 25.5912C24.4205 25.6558 24.3315 25.7043 24.2356 25.7339C24.1397 25.7635 24.0388 25.7735 23.9389 25.7633C23.839 25.7532 23.7422 25.7231 23.6542 25.6749C23.5662 25.6266 23.4887 25.5612 23.4264 25.4825C20.8627 22.4312 17.3364 20.75 13.5002 20.75C9.66394 20.75 6.13894 22.4312 3.57394 25.4825C3.44401 25.6279 3.26253 25.717 3.068 25.7309C2.87348 25.7448 2.68119 25.6823 2.53193 25.5568C2.38267 25.4313 2.28818 25.2525 2.26848 25.0585C2.24879 24.8645 2.30545 24.6704 2.42644 24.5175C4.39269 22.1762 6.87519 20.56 9.62519 19.7825C8.00027 18.918 6.71111 17.5349 5.9628 15.8533C5.21449 14.1717 5.05 12.2881 5.49551 10.5023C5.94101 8.71641 6.97092 7.13082 8.4214 5.99773C9.87187 4.86465 11.6596 4.24915 13.5002 4.24915C15.3408 4.24915 17.1285 4.86465 18.579 5.99773C20.0295 7.13082 21.0594 8.71641 21.5049 10.5023C21.9504 12.2881 21.7859 14.1717 21.0376 15.8533C20.2893 17.5349 19.0001 18.918 17.3752 19.7825C20.1252 20.56 22.6077 22.1762 24.5739 24.5175ZM13.5002 19.25C14.8352 19.25 16.1403 18.8541 17.2503 18.1124C18.3603 17.3707 19.2255 16.3165 19.7364 15.0831C20.2473 13.8497 20.3809 12.4925 20.1205 11.1831C19.86 9.87374 19.2172 8.67101 18.2732 7.727C17.3292 6.783 16.1264 6.14012 14.8171 5.87967C13.5077 5.61922 12.1505 5.7529 10.9171 6.26379C9.68368 6.77468 8.62947 7.63984 7.88777 8.74988C7.14607 9.85991 6.75019 11.165 6.75019 12.5C6.75218 14.2896 7.46397 16.0053 8.72941 17.2708C9.99485 18.5362 11.7106 19.248 13.5002 19.25Z" fill="#343330"/>
</svg>
