<svg width="32" height="32" viewBox="0 0 32 32" fill="none" xmlns="http://www.w3.org/2000/svg">
<path d="M14.075 19.8037C15.4678 19.0143 16.5601 17.7861 17.1815 16.3108C17.8029 14.8354 17.9186 13.1958 17.5104 11.6479C17.1022 10.0999 16.1931 8.73052 14.925 7.75343C13.6568 6.77634 12.1009 6.24646 10.5 6.24646C8.89911 6.24646 7.34323 6.77634 6.07508 7.75343C4.80694 8.73052 3.89786 10.0999 3.48966 11.6479C3.08146 13.1958 3.1971 14.8354 3.81854 16.3108C4.43999 17.7861 5.53228 19.0143 6.92502 19.8037C4.34374 20.6267 2.12695 22.3179 0.651269 24.59C0.54253 24.7566 0.504422 24.9595 0.545329 25.1542C0.586235 25.3489 0.702805 25.5194 0.869394 25.6281C1.03598 25.7369 1.23895 25.775 1.43363 25.7341C1.62832 25.6932 1.79878 25.5766 1.90752 25.41C2.83828 23.9789 4.11173 22.803 5.61227 21.9889C7.1128 21.1749 8.79289 20.7485 10.5 20.7485C12.2071 20.7485 13.8872 21.1749 15.3878 21.9889C16.8883 22.803 18.1618 23.9789 19.0925 25.41C19.2083 25.5584 19.3758 25.6579 19.5615 25.6886C19.7473 25.7193 19.9378 25.679 20.0952 25.5757C20.2526 25.4725 20.3655 25.3138 20.4113 25.1311C20.4571 24.9485 20.4325 24.7554 20.3425 24.59C18.8684 22.319 16.654 20.6279 14.075 19.8037ZM4.75002 13.5C4.75002 12.3628 5.08725 11.2511 5.71907 10.3055C6.35089 9.35989 7.24891 8.62289 8.29959 8.18769C9.35026 7.75249 10.5064 7.63862 11.6218 7.86048C12.7372 8.08235 13.7617 8.62998 14.5659 9.43413C15.37 10.2383 15.9177 11.2628 16.1395 12.3782C16.3614 13.4936 16.2475 14.6498 15.8123 15.7004C15.3771 16.7511 14.6401 17.6491 13.6945 18.2809C12.749 18.9128 11.6373 19.25 10.5 19.25C8.97563 19.248 7.51425 18.6416 6.43635 17.5637C5.35844 16.4858 4.752 15.0244 4.75002 13.5ZM31.125 25.625C30.9586 25.7336 30.7558 25.7717 30.5613 25.7309C30.3667 25.6902 30.1963 25.5738 30.0875 25.4075C29.1584 23.9763 27.8859 22.8003 26.386 21.9868C24.886 21.1733 23.2064 20.7481 21.5 20.75C21.3011 20.75 21.1103 20.671 20.9697 20.5303C20.829 20.3897 20.75 20.1989 20.75 20C20.75 19.8011 20.829 19.6103 20.9697 19.4697C21.1103 19.329 21.3011 19.25 21.5 19.25C22.3467 19.2491 23.1828 19.0613 23.9486 18.6999C24.7143 18.3385 25.3907 17.8124 25.9296 17.1592C26.4684 16.5061 26.8564 15.742 27.0657 14.9216C27.2751 14.1011 27.3006 13.2446 27.1406 12.4131C26.9805 11.5816 26.6388 10.7958 26.1399 10.1117C25.6409 9.42759 24.997 8.86212 24.2542 8.45569C23.5114 8.04927 22.688 7.81191 21.8428 7.76058C20.9976 7.70924 20.1516 7.84521 19.365 8.15875C19.2734 8.19625 19.1753 8.21526 19.0763 8.21466C18.9773 8.21407 18.8794 8.19388 18.7883 8.15528C18.6972 8.11667 18.6146 8.0604 18.5453 7.98972C18.476 7.91903 18.4213 7.83533 18.3846 7.74344C18.3478 7.65154 18.3295 7.55327 18.3309 7.4543C18.3323 7.35532 18.3532 7.2576 18.3925 7.16676C18.4319 7.07592 18.4888 6.99376 18.56 6.92502C18.6312 6.85628 18.7153 6.80232 18.8075 6.76625C20.5135 6.08609 22.4141 6.07876 24.1254 6.74575C25.8366 7.41274 27.2309 8.70432 28.0266 10.3596C28.8224 12.0149 28.9602 13.9105 28.4123 15.6635C27.8645 17.4165 26.6717 18.8962 25.075 19.8037C27.6563 20.6267 29.8731 22.3179 31.3488 24.59C31.456 24.757 31.4927 24.9597 31.4508 25.1537C31.4088 25.3477 31.2917 25.5172 31.125 25.625Z" fill="currentColor"/>
</svg>

