<svg width="32" height="32" viewBox="0 0 32 32" fill="none" xmlns="http://www.w3.org/2000/svg">
<path d="M16.0001 8.50007C16.3979 8.50007 16.7795 8.65811 17.0608 8.93941C17.3421 9.22072 17.5001 9.60225 17.5001 10.0001V16.5001C17.5001 16.8979 17.3421 17.2794 17.0608 17.5607C16.7795 17.842 16.3979 18.0001 16.0001 18.0001C15.6023 18.0001 15.2207 17.842 14.9394 17.5607C14.6581 17.2794 14.5001 16.8979 14.5001 16.5001V10.0001C14.5001 9.60225 14.6581 9.22072 14.9394 8.93941C15.2207 8.65811 15.6023 8.50007 16.0001 8.50007ZM16.0001 19.5001C15.6045 19.5001 15.2179 19.6174 14.889 19.8371C14.5601 20.0569 14.3037 20.3693 14.1523 20.7347C14.001 21.1002 13.9614 21.5023 14.0385 21.8903C14.1157 22.2782 14.3062 22.6346 14.5859 22.9143C14.8656 23.194 15.222 23.3845 15.6099 23.4616C15.9979 23.5388 16.4 23.4992 16.7655 23.3478C17.1309 23.1965 17.4433 22.9401 17.663 22.6112C17.8828 22.2823 18.0001 21.8956 18.0001 21.5001C18.0001 20.9696 17.7894 20.4609 17.4143 20.0859C17.0392 19.7108 16.5305 19.5001 16.0001 19.5001ZM30.5001 16.0001C30.5008 16.3277 30.4367 16.6522 30.3114 16.9549C30.1861 17.2576 30.0021 17.5325 29.7701 17.7638L17.7701 29.7713C17.3016 30.2373 16.6677 30.4989 16.007 30.4989C15.3462 30.4989 14.7123 30.2373 14.2438 29.7713L2.24385 17.7638C1.77746 17.2953 1.51562 16.6611 1.51562 16.0001C1.51562 15.339 1.77746 14.7048 2.24385 14.2363L14.2501 2.22882C14.7186 1.76282 15.3525 1.50122 16.0132 1.50122C16.674 1.50122 17.3079 1.76282 17.7764 2.22882L29.7839 14.2363C30.0134 14.4687 30.1948 14.7442 30.3178 15.0468C30.4407 15.3495 30.5026 15.6734 30.5001 16.0001ZM27.2901 16.0001L16.0001 4.70882L4.7101 16.0001L16.0001 27.2913L27.2901 16.0001Z" fill="currentColor"/>
</svg>
