<svg width="24" height="24" viewBox="0 0 24 24" fill="none" xmlns="http://www.w3.org/2000/svg">
<path d="M10 8.99996C10 7.89539 10.8954 6.99996 12 6.99996C13.1046 6.99996 14 7.89539 14 8.99996C14 10.1045 13.1046 11 12 11C10.8954 11 10 10.1045 10 8.99996Z" fill="currentColor"/>
<path d="M11 12.5C9.34315 12.5 8 13.8431 8 15.5C8 16.0522 8.44772 16.5 9 16.5H15C15.5523 16.5 16 16.0522 16 15.5C16 13.8431 14.6569 12.5 13 12.5H11Z" fill="currentColor"/>
<path fill-rule="evenodd" clip-rule="evenodd" d="M7.54353 2.88264C10.4993 2.4579 13.5007 2.4579 16.4565 2.88264C17.922 3.09323 19.0511 4.28262 19.1852 5.75708L19.3122 7.15281C19.6055 10.3776 19.6055 13.6223 19.3122 16.8471L19.1852 18.2428C19.0511 19.7173 17.922 20.9067 16.4565 21.1173C13.5007 21.542 10.4993 21.542 7.54353 21.1173C6.07804 20.9067 4.94894 19.7173 4.81482 18.2428L4.68785 16.8471C4.3945 13.6223 4.3945 10.3776 4.68785 7.15281L4.81482 5.75708C4.94894 4.28262 6.07804 3.09323 7.54353 2.88264ZM16.2431 4.36739C13.4288 3.96299 10.5712 3.96299 7.75688 4.36739C6.97909 4.47916 6.37983 5.11042 6.30865 5.89297L6.18168 7.2887C5.89655 10.4231 5.89655 13.5769 6.18168 16.7112L6.30865 18.107C6.37984 18.8895 6.97909 19.5208 7.75688 19.6325C10.5712 20.0369 13.4288 20.0369 16.2431 19.6325C17.0209 19.5208 17.6202 18.8895 17.6914 18.107L17.8183 16.7112C18.1035 13.5769 18.1035 10.4231 17.8183 7.2887L17.6914 5.89297C17.6202 5.11042 17.0209 4.47916 16.2431 4.36739Z" fill="currentColor"/>
</svg>

