<svg width="24" height="24" viewBox="0 0 24 24" fill="none" xmlns="http://www.w3.org/2000/svg">
<path d="M13 9.00005C13 9.55233 12.5523 10 12 10C11.4477 10 11 9.55233 11 9.00005C11 8.44776 11.4477 8.00005 12 8.00005C12.5523 8.00005 13 8.44776 13 9.00005Z" fill="currentColor"/>
<path d="M12 11.75C12.4142 11.75 12.75 12.0858 12.75 12.5V17.5C12.75 17.9143 12.4142 18.25 12 18.25C11.5858 18.25 11.25 17.9143 11.25 17.5V12.5C11.25 12.0858 11.5858 11.75 12 11.75Z" fill="currentColor"/>
<path fill-rule="evenodd" clip-rule="evenodd" d="M14.2703 3.99268C13.1784 2.39502 10.8216 2.39501 9.72961 3.99268L9.29769 4.62463C6.59165 8.58384 4.26669 12.7905 2.35396 17.1881L2.26374 17.3956C1.58969 18.9453 2.60805 20.705 4.2876 20.8927C9.41323 21.4656 14.5867 21.4656 19.7124 20.8927C21.3919 20.705 22.4103 18.9453 21.7362 17.3956L21.646 17.1881C19.7333 12.7905 17.4083 8.58385 14.7023 4.62463L14.2703 3.99268ZM10.968 4.83909C11.4643 4.11288 12.5356 4.11288 13.032 4.83909L13.4639 5.47104C16.1165 9.35206 18.3955 13.4756 20.2705 17.7864L20.3607 17.9938C20.6321 18.6179 20.222 19.3264 19.5458 19.402C14.5309 19.9625 9.46911 19.9625 4.4542 19.402C3.77791 19.3264 3.36785 18.6179 3.63927 17.9938L3.72948 17.7864C5.60443 13.4756 7.88348 9.35205 10.5361 5.47104L10.968 4.83909Z" fill="currentColor"/>
</svg>

