<?xml version="1.0" encoding="UTF-8" standalone="no"?>
<!-- Created with Inkscape (http://www.inkscape.org/) -->

<svg
   width="251.07379"
   height="223.73216"
   viewBox="0 0 66.42994 59.195802"
   version="1.1"
   id="svg1"
   xml:space="preserve"
   inkscape:version="1.4.2 (f4327f4, 2025-05-13)"
   sodipodi:docname="nemchin-day-mark.svg"
   xmlns:inkscape="http://www.inkscape.org/namespaces/inkscape"
   xmlns:sodipodi="http://sodipodi.sourceforge.net/DTD/sodipodi-0.dtd"
   xmlns="http://www.w3.org/2000/svg"
   xmlns:svg="http://www.w3.org/2000/svg"><sodipodi:namedview
     id="namedview1"
     pagecolor="#ffffff"
     bordercolor="#000000"
     borderopacity="0.25"
     inkscape:showpageshadow="2"
     inkscape:pageopacity="0.0"
     inkscape:pagecheckerboard="0"
     inkscape:deskcolor="#d1d1d1"
     inkscape:document-units="mm"
     inkscape:zoom="0.71268238"
     inkscape:cx="116.46142"
     inkscape:cy="241.34173"
     inkscape:window-width="1920"
     inkscape:window-height="1009"
     inkscape:window-x="-8"
     inkscape:window-y="-8"
     inkscape:window-maximized="1"
     inkscape:current-layer="layer1" /><defs
     id="defs1" /><g
     inkscape:label="Layer 1"
     inkscape:groupmode="layer"
     id="layer1"
     transform="translate(-74.200416,-84.63044)"><path
       style="fill:#000000"
       d="m 122.88375,143.24603 c -1.09141,-0.33745 -2.81906,-0.9172 -3.83923,-1.28834 -4.30273,-1.56534 -8.72612,-1.84299 -13.88785,-0.87171 -7.801356,1.46796 -9.468402,1.76076 -11.673659,2.05034 -3.305567,0.43408 -11.267762,0.42897 -13.461762,-0.009 -3.752102,-0.74837 -5.820833,-2.27111 -5.820833,-4.28456 0,-1.34914 0.458154,-2.39685 1.843455,-4.21563 1.842625,-2.41921 3.305338,-5.85565 5.405731,-12.7 4.178069,-13.61468 4.361625,-14.52493 3.260083,-16.16661 -0.596757,-0.88937 -0.813635,-0.99169 -3.832927,-1.80822 -0.620876,-0.16791 -1.543611,-0.66945 -2.050521,-1.11452 -0.839535,-0.73712 -0.921655,-0.93697 -0.921655,-2.24293 0,-1.30397 0.0954,-1.53721 1.054149,-2.57733 1.280931,-1.38965 3.717778,-2.56397 7.31973,-3.5274 2.468126,-0.66016 2.950059,-0.69802 9.088621,-0.7139 5.677418,-0.0147 6.863098,0.057 9.549238,0.5776 8.57255,1.66138 14.64456,4.79932 18.09223,9.34983 2.64675,3.4934 4.10853,7.88324 4.10853,12.33826 0,4.70152 -1.35792,8.38008 -4.60038,12.46224 -2.10604,2.65146 -2.52443,3.8582 -1.83014,5.2786 0.81495,1.66723 1.51957,1.83077 6.95969,1.61527 2.43868,-0.0966 3.28321,0.17399 4.45346,1.42692 1.35298,1.44856 0.83159,4.13701 -1.07758,5.55639 -2.11013,1.56879 -4.90119,1.86521 -8.13838,0.86433 z m -22.09271,-10.53908 c 4.18857,-1.46948 8.07084,-4.01268 10.42341,-6.82817 5.39725,-6.45929 6.2243,-13.68379 2.10375,-18.37684 -1.88928,-2.15177 -5.22755,-3.76601 -8.29901,-4.01305 -2.45348,-0.19734 -4.30001,0.53522 -5.391917,2.1391 -1.549065,2.27538 -5.035824,12.09447 -7.29121,20.53284 -1.067368,3.99348 -0.815676,6.0661 0.851533,7.01216 1.100497,0.62448 5.213669,0.37237 7.603444,-0.46604 z M 135.509,102.85327 c -0.55043,-0.12962 -1.38387,-0.4393 -1.85208,-0.68818 -0.51095,-0.2716 -1.74206,-0.51055 -3.0793,-0.59766 -1.40119,-0.0913 -2.2674,-0.26453 -2.33415,-0.46685 -0.17701,-0.53651 2.22262,-2.86373 3.83799,-3.7222 3.27691,-1.74145 6.13376,-1.70883 7.71145,0.088 1.69911,1.93518 0.69409,4.71511 -1.94486,5.3796 -0.64664,0.16283 -1.21228,0.28409 -1.25699,0.26947 -0.0447,-0.0146 -0.53162,-0.13262 -1.08206,-0.26223 z m -11.32525,-6.36859 c -0.51049,-0.95385 -0.16349,-5.91235 0.52254,-7.46697 1.62476,-3.6819 4.83334,-5.3742 7.20031,-3.79766 0.49446,0.32934 1.12274,1.05535 1.39618,1.61334 0.43542,0.88855 0.45633,1.15082 0.16838,2.1119 -0.39369,1.31402 -1.86513,2.79335 -4.2521,4.27491 -1.05502,0.65484 -2.09756,1.58793 -2.73447,2.4474 -1.10754,1.49455 -1.8056,1.74245 -2.30084,0.81708 z"
       id="path1" /></g></svg>
