<?xml version="1.0" encoding="UTF-8" standalone="no"?>
<!-- Created with Inkscape (http://www.inkscape.org/) -->

<svg
   width="142mm"
   height="48mm"
   viewBox="-2 -2 142 48"
   version="1.1"
   id="svg1"
   xml:space="preserve"
   inkscape:version="1.4.2 (f4327f4, 2025-05-13)"
   sodipodi:docname="nemchin-day-logo.svg"
   xmlns:inkscape="http://www.inkscape.org/namespaces/inkscape"
   xmlns:sodipodi="http://sodipodi.sourceforge.net/DTD/sodipodi-0.dtd"
   xmlns="http://www.w3.org/2000/svg"
   xmlns:svg="http://www.w3.org/2000/svg"><sodipodi:namedview
     id="namedview1"
     pagecolor="#ffffff"
     bordercolor="#000000"
     borderopacity="0.25"
     inkscape:showpageshadow="2"
     inkscape:pageopacity="0.0"
     inkscape:pagecheckerboard="0"
     inkscape:deskcolor="#d1d1d1"
     inkscape:document-units="px"
     inkscape:zoom="0.71268238"
     inkscape:cx="283.43622"
     inkscape:cy="200.65039"
     inkscape:window-width="1920"
     inkscape:window-height="1009"
     inkscape:window-x="-8"
     inkscape:window-y="-8"
     inkscape:window-maximized="1"
     inkscape:current-layer="layer1"
     inkscape:lockguides="false"><inkscape:page
       x="0"
       y="0"
       width="137.42259"
       height="44.141663"
       id="page1"
       margin="0"
       bleed="0" /></sodipodi:namedview><defs
     id="defs1" /><g
     inkscape:label="Layer 1"
     inkscape:groupmode="layer"
     id="layer1"
     transform="translate(-28.796,-93.79335)"><path
       style="fill:#000000"
       d="m 90.748982,137.58601 c -1.72299,-0.92008 -1.92237,-2.1469 -0.55802,-3.43365 1.11634,-1.05285 3.03705,-1.60016 10.744478,-3.06171 3.12869,-0.59329 6.52198,-1.24564 7.54062,-1.44967 4.74084,-0.94955 8.06747,-1.29128 12.56771,-1.29105 4.00423,2.1e-4 5.29537,0.11456 9.55022,0.84578 6.0345,1.03707 10.07672,1.14045 12.71616,0.32521 2.25453,-0.69635 4.83838,-2.47207 6.38149,-4.3856 1.46958,-1.82236 3.50316,-5.09999 3.29401,-5.30914 -0.0791,-0.0791 -1.04872,0.3529 -2.15476,0.95993 -3.54288,1.94445 -6.23819,1.67198 -7.42782,-0.75087 -0.29215,-0.59499 -0.599,-1.08735 -0.68189,-1.09414 -0.0829,-0.007 -0.91633,0.58332 -1.85208,1.31136 -3.91515,3.04608 -7.29585,3.15643 -8.36277,0.27296 -0.24417,-0.65989 -0.47237,-1.23942 -0.5071,-1.28785 -0.0347,-0.0484 -0.834,0.51773 -1.77614,1.25813 -1.91804,1.50733 -4.22683,2.66052 -5.69145,2.84276 -1.35342,0.1684 -3.20521,-0.81134 -3.83396,-2.02846 -1.40901,-2.72754 1.57663,-8.77988 6.22991,-12.62896 0.76572,-0.63338 2.27902,-1.59309 3.36288,-2.13268 1.67295,-0.83287 2.23384,-0.98107 3.71288,-0.98107 1.73397,0 1.75005,0.007 3.38716,1.44792 1.0872,0.95699 1.64493,1.64689 1.64493,2.03475 0,0.32276 -0.28949,1.3976 -0.64331,2.38854 -0.62271,1.744 -1.47336,4.80114 -1.47336,5.29506 0,0.13308 0.16243,0.4641 0.36096,0.7356 0.34824,0.47625 0.40247,0.46931 1.53935,-0.19695 1.97056,-1.15483 4.46545,-4.04799 6.0039,-6.96235 0.7624,-1.44425 1.68374,-2.8938 2.04741,-3.22122 0.87542,-0.78816 2.78084,-0.82743 3.5354,-0.0729 1.01371,1.0137 0.93983,1.64003 -0.55072,4.66934 -1.04926,2.13247 -1.40328,3.14742 -1.41341,4.05217 -0.0117,1.04271 0.0648,1.21824 0.56149,1.28898 2.03762,0.29018 6.99224,-4.53246 9.23797,-8.99187 1.00756,-2.00076 1.69,-2.59939 2.96329,-2.59939 1.22305,0 1.88872,0.41813 2.32395,1.45977 0.33146,0.7933 0.31442,1.07131 -0.1598,2.60663 -0.63805,2.06579 -4.75331,10.35385 -6.52702,13.14531 -2.39899,3.77554 -5.64047,7.37998 -7.76595,8.63553 -1.30347,0.76998 -0.92217,0.95567 1.66766,0.81216 2.93249,-0.16249 4.54775,-0.72931 6.93711,-2.43432 3.23473,-2.30825 4.83655,-2.71426 6.78563,-1.71991 2.73891,1.39729 2.178,4.81769 -1.0572,6.44673 -4.80159,2.41778 -14.32601,1.97796 -34.16294,-1.57757 -3.44465,-0.61742 -4.30932,-0.67502 -8.46666,-0.56406 -6.38295,0.17036 -8.23354,0.55897 -18.12396,3.80587 -4.956878,1.62728 -5.475798,1.7442 -8.202088,1.84796 -2.32002,0.0883 -3.07143,0.0248 -3.70416,-0.31309 z m 36.791728,-19.60799 c 1.18667,-0.56311 4.02585,-3.46601 4.79333,-4.9009 0.73764,-1.37909 0.82088,-2.61504 0.17612,-2.61504 -1.35612,0 -5.33581,3.67361 -6.43137,5.93672 -0.9156,1.89138 -0.39073,2.45836 1.46192,1.57922 z m -88.926676,13.0013 c -0.441214,-0.44122 -0.649432,-0.94526 -0.649432,-1.57211 0,-0.93333 2.540157,-8.99499 3.292906,-10.45064 0.56213,-1.08704 1.406131,-1.61532 2.5807,-1.61532 0.774668,0 1.091385,0.1496 1.438608,0.67953 0.358144,0.54659 0.579317,0.64489 1.130579,0.50244 2.18147,-0.56368 5.810287,-1.18197 6.937119,-1.18197 3.618362,0 4.686001,2.12322 2.868345,5.70429 -0.518112,1.02076 -0.77517,1.81332 -0.631392,1.94669 0.134753,0.12501 1.124253,0.008 2.226886,-0.26231 2.119433,-0.52045 3.389853,-0.62132 3.866943,-0.30702 0.884893,0.58295 0.593213,2.37375 -0.503693,3.09247 -0.630153,0.41289 -6.14964,2.35849 -8.960222,3.15844 -2.291077,0.65209 -3.809373,0.56848 -4.632978,-0.25513 -1.091348,-1.09134 -0.752309,-2.14496 1.429234,-4.44155 3.137065,-3.30252 3.188875,-4.54893 0.171271,-4.12032 -0.889893,0.12639 -2.192582,0.44315 -2.894865,0.7039 l -1.276879,0.4741 -1.091235,3.43707 c -0.60018,1.89039 -1.255605,3.69649 -1.456501,4.01356 -0.805259,1.27091 -2.810784,1.52849 -3.845394,0.49388 z m 35.688509,-2.51436 c -2.543916,-0.60614 -3.911222,-2.5082 -3.716973,-5.17068 0.125207,-1.71616 1.000654,-4.06175 1.778797,-4.76596 0.266291,-0.24099 0.960605,-0.50207 1.542921,-0.58018 0.89897,-0.12057 1.165466,-0.0353 1.765827,0.56507 0.673773,0.67377 0.698481,0.79261 0.52466,2.52345 -0.176866,1.76115 -0.161154,1.8303 0.516811,2.27452 1.648676,1.08026 8.264126,-0.21856 12.815446,-2.51605 1.7041,-0.86023 2.63567,-1.00528 3.15041,-0.49055 1.16014,1.16015 -0.73065,3.57907 -4.08365,5.22426 -5.13094,2.51757 -10.995362,3.72216 -14.294249,2.93612 z m 24.119349,-2.67988 c -0.9032,-0.52492 -1.19073,-1.09214 -1.1876,-2.34284 0.004,-1.7743 2.1439,-8.53445 4.819748,-15.22912 1.81215,-4.53381 1.82032,-4.5639 1.36243,-5.02179 -0.22119,-0.22119 -0.78962,-0.40217 -1.26319,-0.40217 -1.93812,0 -2.738278,-2.48902 -1.27164,-3.95566 0.95363,-0.95362 3.70248,-1.60059 6.80067,-1.60059 6.08481,0 11.41392,2.72843 13.29679,6.80775 0.99733,2.16076 0.99069,5.48505 -0.0161,8.08302 -1.84535,4.76163 -5.82951,8.59092 -11.87307,11.41155 -4.01229,1.8726 -9.37212,3.00297 -10.667998,2.24985 z m 9.223368,-6.87493 c 5.84133,-2.45198 10.03068,-8.22 8.93246,-12.29849 -0.55466,-2.05984 -2.93699,-3.77696 -5.56896,-4.01396 -1.21583,-0.10948 -1.54855,-0.0463 -1.89742,0.36008 -0.56837,0.66215 -5.86452,16.43761 -5.64026,16.80048 0.26115,0.42254 1.97823,0.0737 4.17418,-0.84811 z m -43.486907,-0.43369 c -1.361269,-0.50053 -1.715916,-1.88715 -0.785266,-3.07028 0.295707,-0.37593 1.63516,-1.54556 2.976562,-2.59918 5.231267,-4.10897 7.862871,-6.57567 7.862871,-7.37018 0,-0.3565 -3.034037,0.45659 -5.476479,1.46764 -2.533834,1.04889 -3.513922,1.04068 -4.218945,-0.0353 -1.037656,-1.58366 0.500067,-3.24909 4.363745,-4.72614 1.482139,-0.56661 2.826936,-1.18941 2.988437,-1.38401 0.191777,-0.23108 0.225602,-0.83519 0.09751,-1.74151 -0.418583,-2.96163 -0.328612,-3.62573 0.604122,-4.45913 0.636962,-0.56912 1.12296,-0.76502 1.89792,-0.76502 2.283032,0 3.105873,1.06644 2.808053,3.63936 -0.363144,3.13725 -0.533166,2.82371 1.622177,2.99148 2.447512,0.19051 2.986382,0.62462 2.986382,2.40583 0,1.2525 -0.0543,1.33877 -2.381253,3.78135 -1.309687,1.37479 -2.38125,2.57688 -2.38125,2.67133 0,0.64571 1.124199,1.79643 2.490709,2.54946 1.395884,0.76922 1.621334,1.00076 1.692914,1.73864 0.0604,0.62277 -0.0914,1.02524 -0.56575,1.49957 -1.424117,1.42411 -3.684554,1.09102 -6.091007,-0.89756 -1.515958,-1.25271 -1.256262,-1.33228 -5.067491,1.55259 -3.535777,2.67636 -4.414718,3.12217 -5.423959,2.75108 z m -33.755552,-1.10497 c -2.4654,-1.50339 -2.132073,-4.9254 1.265788,-12.99483 2.117228,-5.02811 2.787127,-5.82083 4.91895,-5.82083 1.081191,0 1.701743,0.45942 2.015882,1.49245 0.19064,0.62691 0.03062,1.12235 -1.910766,5.91588 -1.622925,4.00722 -1.850832,5.04151 -1.244505,5.64784 0.671779,0.67178 2.474508,0.53617 4.944671,-0.37195 4.014035,-1.47571 4.633785,-1.64968 5.272617,-1.48004 0.999709,0.26546 1.275161,0.53674 1.454258,1.43223 0.138269,0.69134 0.03586,0.96736 -0.591328,1.59384 -0.417207,0.41673 -1.35387,0.97663 -2.081474,1.24423 -0.727604,0.26759 -2.513542,0.96241 -3.96875,1.54404 -1.455209,0.58163 -3.41974,1.33312 -4.365625,1.66996 -2.176512,0.77509 -4.560161,0.82818 -5.709718,0.12718 z m 54.513321,-0.67967 c -0.46386,-0.46386 -0.64944,-0.93955 -0.64944,-1.66467 0,-2.02254 5.4028,-16.77148 6.49412,-17.72809 1.10343,-0.96722 3.18271,-0.65998 3.77894,0.55839 0.72703,1.48567 0.54341,2.16875 -3.5032,13.03203 -2.07115,5.56008 -2.67729,6.45177 -4.38572,6.45177 -0.79949,0 -1.25629,-0.17102 -1.7347,-0.64943 z m -32.543754,-1.85209 c -0.889755,-0.88975 -0.841143,-1.77838 0.308652,-5.64211 0.531746,-1.78686 0.885074,-3.33058 0.785173,-3.43048 -0.0999,-0.0999 -1.64979,0.20122 -3.444198,0.66915 -3.837115,1.00062 -4.349849,1.03001 -5.274836,0.30242 -1.00242,-0.7885 -0.937421,-1.9101 0.175171,-3.02269 0.931752,-0.93175 1.609028,-1.18294 5.345398,-1.98249 4.780527,-1.023 4.642964,-0.94784 5.697175,-3.11284 1.201688,-2.46787 1.748069,-2.9997 3.256389,-3.16971 1.082487,-0.12202 1.29119,-0.0526 2.014011,0.67026 1.222336,1.22234 1.163886,1.55259 -1.578168,8.91688 -0.270919,0.72761 -0.922684,2.57307 -1.448366,4.10104 -1.643253,4.77635 -1.741971,4.99573 -2.556393,5.68102 -1.057219,0.88959 -2.401952,0.89761 -3.280008,0.0195 z"
       id="path1" /></g></svg>
